<svg width="24" height="24" viewBox="0 0 24 24" fill="none" xmlns="http://www.w3.org/2000/svg">
<g clip-path="url(#clip0_837_57368)">
<path d="M23.967 12.8932C23.9574 13.0263 23.9454 13.1593 23.931 13.2912C23.865 13.3068 23.9112 13.3919 23.9022 13.4681C23.847 13.9165 23.7504 14.3115 23.6496 14.7425H0.340771C0.186571 14.0807 0.0935715 13.5826 0.0407715 12.8932H23.967Z" fill="#F2F2F2"/>
<path d="M24.0002 12C24.0002 12.3003 23.9894 12.5982 23.9672 12.8932H11.9954V11.0444H23.9504L23.9636 11.0576C23.9876 11.3687 24.0002 11.6829 24.0002 12Z" fill="#F70E0E"/>
<path d="M23.9618 11.0331L23.9504 11.0445H11.9954V9.19513H23.6498C23.7518 9.62254 23.8364 10.0344 23.9018 10.4702C23.9126 10.5427 23.8688 10.6248 23.9246 10.6446C23.939 10.7735 23.9516 10.903 23.9618 11.0331Z" fill="#F6F5F5"/>
<path d="M12.8958 0L14.5968 0.274553C15.9558 0.556899 17.1972 1.1108 18.348 1.84934H11.9958V0H12.8965H12.8958Z" fill="#FE1111"/>
<path d="M23.9634 11.0577L23.9502 11.0445L23.9616 11.0331C23.9622 11.0415 23.9628 11.0493 23.9634 11.0577Z" fill="#FEFEFE"/>
<path d="M10.9951 0L9.11286 0.343491C5.33226 1.27925 2.25966 3.98401 0.841261 7.59636C0.142261 9.37616 -0.106739 10.9791 0.0408607 12.8932H11.9953V0H10.9951ZM1.64646 8.97812C1.61046 9.09981 1.82046 9.39055 1.79106 9.54521C1.76166 9.58298 1.39446 9.26047 1.35906 9.25327C1.22466 9.2263 1.02486 9.5554 0.841261 9.49486C1.12566 8.95954 0.934861 8.95474 0.591061 8.59626C0.691861 8.57468 1.09446 8.62684 1.13646 8.59087C1.15806 8.57229 1.25046 8.12629 1.29186 8.04656C1.37466 7.98182 1.48206 8.53512 1.53906 8.57348C1.64226 8.64182 1.95426 8.57169 2.09106 8.59686C2.04726 8.73654 1.67466 8.88281 1.64586 8.97932L1.64646 8.97812ZM3.24726 11.3772C3.21126 11.4989 3.42126 11.7896 3.39186 11.9443C3.25926 11.9185 3.03726 11.6433 2.92506 11.6529C2.78946 11.6643 2.63286 11.9472 2.44206 11.8939C2.72646 11.3586 2.53566 11.3538 2.19186 10.9953C2.29266 10.9737 2.69526 11.0259 2.73726 10.9899C2.75886 10.9713 2.85126 10.5253 2.89266 10.4456C2.97546 10.3809 3.08286 10.9342 3.13986 10.9725C3.24306 11.0409 3.55506 10.9707 3.69186 10.9959C3.64806 11.1356 3.27546 11.2818 3.24666 11.3784L3.24726 11.3772ZM4.84746 8.97812C4.81146 9.09981 5.02146 9.39055 4.99206 9.54521C4.96266 9.58298 4.59546 9.26047 4.56006 9.25327C4.42566 9.2263 4.22586 9.5554 4.04226 9.49486C4.32666 8.95954 4.13586 8.95474 3.79206 8.59626C3.89286 8.57468 4.29546 8.62684 4.33746 8.59087C4.35906 8.57229 4.45146 8.12629 4.49286 8.04656C4.57566 7.98182 4.68306 8.53512 4.74006 8.57348C4.84326 8.64182 5.15526 8.57169 5.29206 8.59686C5.24826 8.73654 4.87566 8.88281 4.84686 8.97932L4.84746 8.97812ZM6.44826 11.3772C6.41226 11.4989 6.62226 11.7896 6.59286 11.9443C6.46026 11.9185 6.23826 11.6433 6.12606 11.6529C5.99046 11.6643 5.83386 11.9472 5.64306 11.8939C5.92746 11.3586 5.73666 11.3538 5.39286 10.9953C5.49366 10.9737 5.89626 11.0259 5.93826 10.9899C5.95986 10.9713 6.05226 10.5253 6.09366 10.4456C6.17646 10.3809 6.28386 10.9342 6.34086 10.9725C6.44406 11.0409 6.75606 10.9707 6.89286 10.9959C6.84906 11.1356 6.47646 11.2818 6.44766 11.3784L6.44826 11.3772ZM8.04906 8.97812C8.01306 9.09981 8.22306 9.39055 8.19366 9.54521C8.16426 9.58298 7.79706 9.26047 7.76166 9.25327C7.62726 9.2263 7.42746 9.5554 7.24386 9.49486C7.52826 8.95954 7.33746 8.95474 6.99366 8.59626C7.09446 8.57468 7.49706 8.62684 7.53906 8.59087C7.56066 8.57229 7.65306 8.12629 7.69446 8.04656C7.77726 7.98182 7.88466 8.53512 7.94166 8.57348C8.04486 8.64182 8.35686 8.57169 8.49366 8.59686C8.44986 8.73654 8.07726 8.88281 8.04846 8.97932L8.04906 8.97812ZM9.64926 11.3772C9.61326 11.4989 9.82326 11.7896 9.79386 11.9443C9.66126 11.9185 9.43926 11.6433 9.32706 11.6529C9.19146 11.6643 9.03486 11.9472 8.84406 11.8939C9.12846 11.3586 8.93766 11.3538 8.59386 10.9953C8.69466 10.9737 9.09726 11.0259 9.13926 10.9899C9.16086 10.9713 9.25326 10.5253 9.29466 10.4456C9.37746 10.3809 9.48486 10.9342 9.54186 10.9725C9.64506 11.0409 9.95706 10.9707 10.0939 10.9959C10.0501 11.1356 9.67746 11.2818 9.64866 11.3784L9.64926 11.3772ZM11.2501 8.97812C11.2141 9.09981 11.4241 9.39055 11.3947 9.54521C11.3653 9.58298 10.9981 9.26047 10.9627 9.25327C10.8283 9.2263 10.6285 9.5554 10.4449 9.49486C10.7293 8.95954 10.5385 8.95474 10.1947 8.59626C10.2955 8.57468 10.6981 8.62684 10.7401 8.59087C10.7617 8.57229 10.8541 8.12629 10.8955 8.04656C10.9783 7.98182 11.0857 8.53512 11.1427 8.57348C11.2459 8.64182 11.5579 8.57169 11.6947 8.59686C11.6509 8.73654 11.2783 8.88281 11.2495 8.97932L11.2501 8.97812ZM10.7383 3.79159C10.7671 3.773 10.8577 3.3324 10.8955 3.24848C10.9783 3.18373 11.0857 3.73704 11.1427 3.7754C11.2459 3.84374 11.5579 3.7736 11.6947 3.79878C11.6509 3.93846 11.2783 4.08472 11.2495 4.18124C11.2135 4.30293 11.4235 4.59367 11.3941 4.74833C11.2615 4.72255 11.0395 4.4474 10.9273 4.45699C10.7917 4.46838 10.6351 4.75132 10.4443 4.69797C10.7287 4.16265 10.5379 4.15786 10.1941 3.79938C10.3105 3.7736 10.6687 3.83715 10.7377 3.79219L10.7383 3.79159ZM9.13746 1.39255C9.16626 1.37396 9.25686 0.93336 9.29466 0.849436C9.47706 0.920771 9.40026 1.28944 9.54306 1.37516C9.66126 1.4453 9.94866 1.37516 10.0939 1.39974C10.0435 1.51544 9.67326 1.69947 9.64866 1.7816C9.61266 1.90329 9.82266 2.19403 9.79326 2.34869C9.66066 2.32291 9.43866 2.04776 9.32646 2.05735C9.19086 2.06874 9.03426 2.35168 8.84346 2.29833C9.12786 1.76301 8.93706 1.75822 8.59326 1.39974C8.70966 1.37396 9.06786 1.43751 9.13686 1.39255H9.13746ZM9.13746 6.19063C9.16626 6.17205 9.25686 5.73144 9.29466 5.64752C9.47706 5.71885 9.40026 6.08752 9.54306 6.17324C9.66126 6.24338 9.94866 6.17324 10.0939 6.19782C10.0435 6.31352 9.67326 6.49755 9.64866 6.57968C9.61266 6.70137 9.82266 6.99211 9.79326 7.14677C9.66066 7.12099 9.43866 6.84584 9.32646 6.85543C9.19086 6.86682 9.03426 7.14977 8.84346 7.09641C9.12786 6.5611 8.93706 6.5563 8.59326 6.19782C8.70966 6.17205 9.06786 6.23559 9.13686 6.19063H9.13746ZM7.53726 3.79159C7.56606 3.773 7.65666 3.3324 7.69446 3.24848C7.77726 3.18373 7.88466 3.73704 7.94166 3.7754C8.04486 3.84374 8.35686 3.7736 8.49366 3.79878C8.44986 3.93846 8.07726 4.08472 8.04846 4.18124C8.01246 4.30293 8.22246 4.59367 8.19306 4.74833C8.06046 4.72255 7.83846 4.4474 7.72626 4.45699C7.59066 4.46838 7.43406 4.75132 7.24326 4.69797C7.52766 4.16265 7.33686 4.15786 6.99306 3.79938C7.10946 3.7736 7.46766 3.83715 7.53666 3.79219L7.53726 3.79159ZM5.93646 6.19063C5.96526 6.17205 6.05586 5.73144 6.09366 5.64752C6.27606 5.71885 6.19926 6.08752 6.34206 6.17324C6.46026 6.24338 6.74766 6.17324 6.89286 6.19782C6.84246 6.31352 6.47226 6.49755 6.44766 6.57968C6.41166 6.70137 6.62166 6.99211 6.59226 7.14677C6.45966 7.12099 6.23766 6.84584 6.12546 6.85543C5.98986 6.86682 5.83326 7.14977 5.64246 7.09641C5.92686 6.5611 5.73606 6.5563 5.39226 6.19782C5.50866 6.17205 5.86686 6.23559 5.93586 6.19063H5.93646ZM4.33746 3.79279C4.35906 3.7742 4.45146 3.3282 4.49286 3.24848C4.57566 3.18373 4.68306 3.73704 4.74006 3.7754C4.84326 3.84374 5.15526 3.7736 5.29206 3.79878C5.24826 3.93846 4.87566 4.08472 4.84686 4.18124C4.81086 4.30293 5.02086 4.59367 4.99146 4.74833C4.85886 4.72255 4.63686 4.4474 4.52466 4.45699C4.38906 4.46838 4.23246 4.75132 4.04166 4.69797C4.32606 4.16265 4.13526 4.15786 3.79146 3.79938C3.89226 3.7778 4.29486 3.82995 4.33686 3.79399L4.33746 3.79279ZM2.73546 6.19063C2.76426 6.17205 2.85486 5.73144 2.89266 5.64752C3.07506 5.71885 2.99826 6.08752 3.14106 6.17324C3.25926 6.24338 3.54666 6.17324 3.69186 6.19782C3.64146 6.31352 3.27126 6.49755 3.24666 6.57968C3.21066 6.70137 3.42066 6.99211 3.39126 7.14677C3.25866 7.12099 3.03666 6.84584 2.92446 6.85543C2.78886 6.86682 2.63226 7.14977 2.44146 7.09641C2.72586 6.5611 2.53506 6.5563 2.19126 6.19782C2.30766 6.17205 2.66586 6.23559 2.73486 6.19063H2.73546Z" fill="#0E6BB3"/>
<path d="M23.6496 14.7426C23.481 15.4643 23.3328 15.9115 23.0496 16.5919H0.94082C0.66062 15.9109 0.50942 15.4667 0.34082 14.7426H23.6496Z" fill="#F40B0B"/>
<path d="M23.0497 16.5912C22.7581 17.2914 22.5097 17.798 22.0993 18.4406H1.89132C1.46772 17.783 1.23492 17.3052 0.940918 16.5912H23.0497Z" fill="#EEEDED"/>
<path d="M22.0992 18.4406C21.6714 19.1102 21.243 19.6611 20.6988 20.2396H3.29225C2.74565 19.6605 2.32265 19.1096 1.89185 18.4406H22.0998H22.0992Z" fill="#EF0808"/>
<path d="M20.6988 20.2396C19.9392 21.047 19.278 21.553 18.348 22.1387H5.64304C4.72924 21.5638 4.03624 21.0285 3.29224 20.2396H20.6988Z" fill="#E9E4E4"/>
<path d="M18.3481 22.1387C14.4049 24.6216 9.58747 24.6198 5.64307 22.1387H18.3481Z" fill="#EA0505"/>
<path d="M23.0498 7.39612C23.3144 8.03155 23.489 8.51771 23.6498 9.1951H11.9954V7.39612H23.0498Z" fill="#FA0D0D"/>
<path d="M22.0496 5.49707C22.4894 6.17746 22.7378 6.64564 23.0498 7.39616H11.9954V5.49707H22.049H22.0496Z" fill="#F9F3F3"/>
<path d="M20.5489 3.69806L20.6965 3.72324C21.2167 4.27414 21.6408 4.86521 22.0494 5.49704H11.9958V3.69806H20.5494H20.5489Z" fill="#FC0D0D"/>
<path d="M18.3482 1.84935C18.8756 2.18805 19.4012 2.53454 19.8722 2.94996C20.1074 3.15738 20.4218 3.41814 20.549 3.69809H11.9954V1.84875H18.3476L18.3482 1.84935Z" fill="#FAF9F9"/>
<path d="M5.29259 3.79875C5.24879 3.93843 4.87619 4.0847 4.84739 4.18121C4.81139 4.3029 5.02139 4.59364 4.99199 4.7483C4.85939 4.72252 4.63739 4.44737 4.52519 4.45696C4.38959 4.46835 4.23299 4.7513 4.04219 4.69794C4.32659 4.16263 4.13579 4.15783 3.79199 3.79935C3.89279 3.77777 4.29539 3.82992 4.33739 3.79396C4.35899 3.77537 4.45139 3.32938 4.49279 3.24965C4.57559 3.18491 4.68299 3.73821 4.73999 3.77657C4.84319 3.84491 5.15519 3.77477 5.29199 3.79995L5.29259 3.79875Z" fill="#F6F5F5"/>
<path d="M11.6952 3.7988C11.6514 3.93848 11.2788 4.08475 11.25 4.18126C11.214 4.30295 11.424 4.59369 11.3946 4.74835C11.262 4.72257 11.04 4.44742 10.9278 4.45701C10.7922 4.4684 10.6356 4.75135 10.4448 4.69799C10.7292 4.16268 10.5384 4.15788 10.1946 3.7994C10.311 3.77363 10.6692 3.83717 10.7382 3.79221C10.767 3.77363 10.8576 3.33302 10.8954 3.2491C10.9782 3.18436 11.0856 3.73766 11.1426 3.77602C11.2458 3.84436 11.5578 3.77423 11.6946 3.7994L11.6952 3.7988Z" fill="#F6F5F5"/>
<path d="M8.49425 3.7988C8.45045 3.93848 8.07785 4.08475 8.04905 4.18126C8.01305 4.30295 8.22305 4.59369 8.19365 4.74835C8.06105 4.72257 7.83905 4.44742 7.72685 4.45701C7.59125 4.4684 7.43465 4.75135 7.24385 4.69799C7.52825 4.16268 7.33745 4.15788 6.99365 3.7994C7.11005 3.77363 7.46825 3.83717 7.53725 3.79221C7.56605 3.77363 7.65665 3.33302 7.69445 3.2491C7.77725 3.18436 7.88465 3.73766 7.94165 3.77602C8.04485 3.84436 8.35685 3.77423 8.49365 3.7994L8.49425 3.7988Z" fill="#F6F5F5"/>
<path d="M10.0944 6.19722C10.044 6.31291 9.67375 6.49695 9.64915 6.57907C9.61315 6.70076 9.82315 6.9915 9.79375 7.14616C9.66115 7.12039 9.43915 6.84523 9.32695 6.85482C9.19135 6.86621 9.03475 7.14916 8.84395 7.09581C9.12835 6.56049 8.93755 6.55569 8.59375 6.19722C8.71015 6.17144 9.06835 6.23498 9.13735 6.19002C9.16615 6.17144 9.25675 5.73084 9.29455 5.64691C9.47695 5.71825 9.40015 6.08692 9.54295 6.17264C9.66115 6.24278 9.94855 6.17264 10.0937 6.19722H10.0944Z" fill="#F2F2F2"/>
<path d="M6.89342 6.19722C6.84302 6.31291 6.47282 6.49695 6.44822 6.57907C6.41222 6.70076 6.62222 6.9915 6.59282 7.14616C6.46022 7.12039 6.23822 6.84523 6.12602 6.85482C5.99042 6.86621 5.83382 7.14916 5.64302 7.09581C5.92742 6.56049 5.73662 6.55569 5.39282 6.19722C5.50922 6.17144 5.86742 6.23498 5.93642 6.19002C5.96522 6.17144 6.05582 5.73084 6.09362 5.64691C6.27602 5.71825 6.19922 6.08692 6.34202 6.17264C6.46022 6.24278 6.74762 6.17264 6.89282 6.19722H6.89342Z" fill="#F2F2F2"/>
<path d="M3.69249 6.19722C3.64209 6.31291 3.27189 6.49695 3.24729 6.57907C3.21129 6.70076 3.42129 6.9915 3.39189 7.14616C3.25929 7.12039 3.03729 6.84523 2.92509 6.85482C2.78949 6.86621 2.63289 7.14916 2.44209 7.09581C2.72649 6.56049 2.53569 6.55569 2.19189 6.19722C2.30829 6.17144 2.66649 6.23498 2.73549 6.19002C2.76429 6.17144 2.85489 5.73084 2.89269 5.64691C3.07509 5.71825 2.99829 6.08692 3.14109 6.17264C3.25929 6.24278 3.54669 6.17264 3.69189 6.19722H3.69249Z" fill="#F2F2F2"/>
<path d="M10.0944 1.39973C10.044 1.51543 9.67375 1.69946 9.64915 1.78159C9.61315 1.90328 9.82315 2.19402 9.79375 2.34868C9.66115 2.3229 9.43915 2.04775 9.32695 2.05734C9.19135 2.06873 9.03475 2.35167 8.84395 2.29832C9.12835 1.763 8.93755 1.75821 8.59375 1.39973C8.71015 1.37395 9.06835 1.4375 9.13735 1.39254C9.16615 1.37395 9.25675 0.933351 9.29455 0.849426C9.47695 0.920762 9.40015 1.28943 9.54295 1.37515C9.66115 1.44529 9.94855 1.37515 10.0937 1.39973H10.0944Z" fill="#F6F5F5"/>
<path d="M2.09166 8.59624C2.04786 8.73591 1.67526 8.88218 1.64646 8.97869C1.61046 9.10038 1.82046 9.39112 1.79106 9.54578C1.76166 9.58355 1.39446 9.26104 1.35906 9.25385C1.22466 9.22687 1.02486 9.55597 0.841264 9.49543C1.12566 8.96011 0.934864 8.95531 0.591064 8.59684C0.691864 8.57526 1.09446 8.62741 1.13646 8.59144C1.15806 8.57286 1.25046 8.12686 1.29186 8.04713C1.37466 7.98239 1.48206 8.53569 1.53906 8.57406C1.64226 8.6424 1.95426 8.57226 2.09106 8.59744L2.09166 8.59624Z" fill="#F2F2F2"/>
<path d="M8.49425 8.59624C8.45045 8.73591 8.07785 8.88218 8.04905 8.97869C8.01305 9.10038 8.22305 9.39112 8.19365 9.54578C8.16425 9.58355 7.79705 9.26104 7.76165 9.25385C7.62725 9.22687 7.42745 9.55597 7.24385 9.49543C7.52825 8.96011 7.33745 8.95531 6.99365 8.59684C7.09445 8.57526 7.49705 8.62741 7.53905 8.59144C7.56065 8.57286 7.65305 8.12686 7.69445 8.04713C7.77725 7.98239 7.88465 8.53569 7.94165 8.57406C8.04485 8.6424 8.35685 8.57226 8.49365 8.59744L8.49425 8.59624Z" fill="#F2F2F2"/>
<path d="M11.6952 8.59624C11.6514 8.73591 11.2788 8.88218 11.25 8.97869C11.214 9.10038 11.424 9.39112 11.3946 9.54578C11.3652 9.58355 10.998 9.26104 10.9626 9.25385C10.8282 9.22687 10.6284 9.55597 10.4448 9.49543C10.7292 8.96011 10.5384 8.95531 10.1946 8.59684C10.2954 8.57526 10.698 8.62741 10.74 8.59144C10.7616 8.57286 10.854 8.12686 10.8954 8.04713C10.9782 7.98239 11.0856 8.53569 11.1426 8.57406C11.2458 8.6424 11.5578 8.57226 11.6946 8.59744L11.6952 8.59624Z" fill="#F2F2F2"/>
<path d="M5.29259 8.59624C5.24879 8.73591 4.87619 8.88218 4.84739 8.97869C4.81139 9.10038 5.02139 9.39112 4.99199 9.54578C4.96259 9.58355 4.59539 9.26104 4.55999 9.25385C4.42559 9.22687 4.22579 9.55597 4.04219 9.49543C4.32659 8.96011 4.13579 8.95531 3.79199 8.59684C3.89279 8.57526 4.29539 8.62741 4.33739 8.59144C4.35899 8.57286 4.45139 8.12686 4.49279 8.04713C4.57559 7.98239 4.68299 8.53569 4.73999 8.57406C4.84319 8.6424 5.15519 8.57226 5.29199 8.59744L5.29259 8.59624Z" fill="#F2F2F2"/>
<path d="M3.69249 10.9947C3.64869 11.1344 3.27609 11.2806 3.24729 11.3771C3.21129 11.4988 3.42129 11.7896 3.39189 11.9442C3.25929 11.9184 3.03729 11.6433 2.92509 11.6529C2.78949 11.6643 2.63289 11.9472 2.44209 11.8939C2.72649 11.3585 2.53569 11.3538 2.19189 10.9953C2.29269 10.9737 2.69529 11.0258 2.73729 10.9899C2.75889 10.9713 2.85129 10.5253 2.89269 10.4456C2.97549 10.3808 3.08289 10.9341 3.13989 10.9725C3.24309 11.0408 3.55509 10.9707 3.69189 10.9959L3.69249 10.9947Z" fill="#F2F2F2"/>
<path d="M6.89342 10.9947C6.84962 11.1344 6.47702 11.2806 6.44822 11.3771C6.41222 11.4988 6.62222 11.7896 6.59282 11.9442C6.46022 11.9184 6.23822 11.6433 6.12602 11.6529C5.99042 11.6643 5.83382 11.9472 5.64302 11.8939C5.92742 11.3585 5.73662 11.3538 5.39282 10.9953C5.49362 10.9737 5.89622 11.0258 5.93822 10.9899C5.95982 10.9713 6.05222 10.5253 6.09362 10.4456C6.17642 10.3808 6.28382 10.9341 6.34082 10.9725C6.44402 11.0408 6.75602 10.9707 6.89282 10.9959L6.89342 10.9947Z" fill="#F2F2F2"/>
<path d="M10.0944 10.9947C10.0506 11.1344 9.67795 11.2806 9.64915 11.3771C9.61315 11.4988 9.82315 11.7896 9.79375 11.9442C9.66115 11.9184 9.43915 11.6433 9.32695 11.6529C9.19135 11.6643 9.03475 11.9472 8.84395 11.8939C9.12835 11.3585 8.93755 11.3538 8.59375 10.9953C8.69455 10.9737 9.09715 11.0258 9.13915 10.9899C9.16075 10.9713 9.25315 10.5253 9.29455 10.4456C9.37735 10.3808 9.48475 10.9341 9.54175 10.9725C9.64495 11.0408 9.95695 10.9707 10.0937 10.9959L10.0944 10.9947Z" fill="#F2F2F2"/>
</g>
<defs>
<clipPath id="clip0_837_57368">
<rect width="24" height="24" fill="white"/>
</clipPath>
</defs>
</svg>
